<?xml version="1.0" standalone="no"?>
<!DOCTYPE svg PUBLIC "-//W3C//DTD SVG 20010904//EN"
 "http://www.w3.org/TR/2001/REC-SVG-20010904/DTD/svg10.dtd">
<svg version="1.0" xmlns="http://www.w3.org/2000/svg"
 width="312.000000pt" height="312.000000pt" viewBox="0 0 312.000000 312.000000"
 preserveAspectRatio="xMidYMid meet">

<g transform="translate(0.000000,312.000000) scale(0.100000,-0.100000)"
fill="#000000" stroke="none">
<path d="M981 2248 c-66 -25 -137 -93 -171 -163 -34 -68 -35 -196 -3 -267 91
-200 370 -253 523 -99 72 72 95 129 95 231 -1 105 -23 159 -92 228 -89 89
-230 117 -352 70z m210 -204 c59 -57 57 -136 -6 -194 -21 -20 -37 -25 -80 -25
-46 0 -58 4 -85 30 -56 54 -59 127 -7 184 31 33 55 41 105 37 31 -3 52 -12 73
-32z"/>
<path d="M1560 1950 l0 -100 358 2 357 3 0 95 0 95 -357 3 -358 2 0 -100z"/>
<path d="M1891 1468 c-66 -25 -137 -93 -171 -163 -34 -68 -35 -196 -3 -267 91
-200 370 -253 523 -99 72 72 95 129 95 231 -1 105 -23 159 -92 228 -89 89
-230 117 -352 70z m210 -204 c59 -57 57 -136 -6 -194 -21 -20 -37 -25 -80 -25
-46 0 -58 4 -85 30 -56 54 -59 127 -7 184 31 33 55 41 105 37 31 -3 52 -12 73
-32z"/>
<path d="M850 1265 c-1 -3 -1 -47 -1 -97 l-1 -93 356 -3 356 -2 0 100 0 100
-355 0 c-195 0 -355 -2 -355 -5z"/>
</g>
</svg>
